<?xml version="1.0" encoding="iso-8859-1"?>
<!-- Generator: Adobe Illustrator 16.0.0, SVG Export Plug-In . SVG Version: 6.00 Build 0)  -->
<!DOCTYPE svg PUBLIC "-//W3C//DTD SVG 1.1//EN" "http://www.w3.org/Graphics/SVG/1.1/DTD/svg11.dtd">
<svg version="1.1" id="Capa_1" xmlns="http://www.w3.org/2000/svg" xmlns:xlink="http://www.w3.org/1999/xlink" x="0px" y="0px"
	 width="59.955px" height="59.955px" viewBox="0 0 59.955 59.955" style="enable-background:new 0 0 59.955 59.955;"
	 xml:space="preserve">
<g>
	<path d="M16.16,19.567V0h5.438v19.208c-0.392-0.024-0.78-0.058-1.183-0.058C18.963,19.142,17.538,19.293,16.16,19.567z M53.624,0
		v8.757l-3.759-2.628L46.12,8.757V0H24.716v19.574c9.955,1.995,17.451,10.781,17.451,21.324c0,8.214-4.551,15.355-11.268,19.058
		h27.673V0H53.624z M39.454,40.897c0-10.5-8.539-19.039-19.033-19.039c-10.498,0-19.038,8.539-19.038,19.039
		c0,10.497,8.541,19.037,19.038,19.037C30.915,59.935,39.454,51.395,39.454,40.897z M35.951,40.897
		c0,8.565-6.962,15.534-15.53,15.534c-8.563,0-15.534-6.969-15.534-15.534c0-8.568,6.971-15.536,15.534-15.536
		C28.987,25.359,35.951,32.329,35.951,40.897z M20.419,36.246c-2.57,0-4.649,2.085-4.649,4.651c0,2.57,2.082,4.648,4.649,4.648
		c2.566,0,4.652-2.083,4.652-4.648C25.071,38.326,22.985,36.246,20.419,36.246z"/>
</g>
<g>
</g>
<g>
</g>
<g>
</g>
<g>
</g>
<g>
</g>
<g>
</g>
<g>
</g>
<g>
</g>
<g>
</g>
<g>
</g>
<g>
</g>
<g>
</g>
<g>
</g>
<g>
</g>
<g>
</g>
</svg>
