<?xml version="1.0" encoding="iso-8859-1"?>
<!-- Generator: Adobe Illustrator 19.0.0, SVG Export Plug-In . SVG Version: 6.00 Build 0)  -->
<svg version="1.1" id="Capa_1" xmlns="http://www.w3.org/2000/svg" xmlns:xlink="http://www.w3.org/1999/xlink" x="0px" y="0px"
	 viewBox="0 0 512.002 512.002" style="enable-background:new 0 0 512.002 512.002;" xml:space="preserve">
<g>
	<g>
		<path d="M412.046,121.3C407.125,53.586,350.435,0,281.458,0C212.442,0,155.726,53.657,150.86,121.427
			c-42.174,4.809-75.044,40.701-75.044,84.124c0,5.021,0.438,9.997,1.309,14.889H59.803c-32.975,0-59.802,26.817-59.802,59.781
			C0.003,313.183,26.829,340,59.803,340H126v55.275v4.469c0,5.522,4.477,10,10,10h6.375v15.213H136c-5.523,0-10,4.478-10,10v67.045
			c0,5.522,4.477,10,10,10h240c5.523,0,10-4.478,10-10v-67.045c0-5.522-4.477-10-10-10h-6.375v-15.213H376c5.523,0,10-4.478,10-10
			v-4.469V340h16.392C462.831,340,512,290.852,512,230.439C512,173.279,467.979,126.203,412.046,121.3z M366,492.002H146v-47.045
			h220V492.002z M162.375,424.957v-15.213h187.25v15.213H162.375z M366,385.275H146v-42.576h220V385.275z M162.375,320v-12.514
			h187.25V320H162.375z M366.002,287.486h-220v-47.047h220V287.486z M402.393,320H376h-6.375v-12.514H376c5.523,0,10-4.478,10-10
			v-67.047c0-5.522-4.477-10-10-10H136c-5.523,0-10,4.478-10,10v67.047c0,5.522,4.477,10,10,10h6.375V320H136H59.803
			c-21.947,0-39.802-17.846-39.802-39.781s17.855-39.779,39.802-39.779h30.27c3.246,0,6.291-1.576,8.165-4.227
			c1.874-2.651,2.345-6.047,1.263-9.107c-2.444-6.912-3.684-14.164-3.684-21.555c0-35.66,29.027-64.672,64.706-64.672
			c5.523,0,10-4.478,10-10C170.523,69.74,220.289,20,281.458,20c61.17,0,110.935,49.74,110.935,110.879c0,5.522,4.477,10,10,10
			c49.41,0,89.608,40.177,89.608,89.561C492,279.824,451.802,320,402.393,320z"/>
	</g>
</g>
<g>
	<g>
		<path d="M263.591,43.217c-1.697-5.255-7.333-8.143-12.59-6.442c-20.128,6.501-37.983,19.616-50.277,36.93
			c-3.198,4.503-2.139,10.745,2.364,13.942c1.757,1.248,3.778,1.848,5.781,1.848c3.13,0,6.212-1.466,8.162-4.212
			c9.815-13.822,24.063-24.291,40.118-29.477C262.404,54.109,265.289,48.472,263.591,43.217z"/>
	</g>
</g>
<g>
	<g>
		<path d="M198.687,96.73c-5.312-1.505-10.855,1.616-12.367,6.928l-0.147,0.527c-1.453,5.328,1.688,10.825,7.016,12.278
			c0.881,0.24,1.766,0.354,2.637,0.354c4.398,0,8.429-2.924,9.642-7.371l0.088-0.314c0.001-0.001,0.027-0.097,0.028-0.099
			C207.092,103.724,203.997,98.241,198.687,96.73z"/>
	</g>
</g>
<g>
	<g>
		<path d="M220.977,253.963h-0.475c-5.523,0-10,4.478-10,10c0,5.523,4.477,10,10,10h0.475c5.523,0,10-4.477,10-10
			S226.5,253.963,220.977,253.963z"/>
	</g>
</g>
<g>
	<g>
		<path d="M341.5,253.963h-91.439c-5.523,0-10,4.478-10,10c0,5.523,4.477,10,10,10H341.5c5.523,0,10-4.477,10-10
			S347.023,253.963,341.5,253.963z"/>
	</g>
</g>
<g>
	<g>
		<path d="M341.5,356.221h-91.439c-5.523,0-10,4.478-10,10c0,5.522,4.477,10,10,10H341.5c5.523,0,10-4.478,10-10
			C351.5,360.699,347.023,356.221,341.5,356.221z"/>
	</g>
</g>
<g>
	<g>
		<path d="M220.979,356.221h-0.475c-5.523,0-10,4.478-10,10c0,5.522,4.477,10,10,10h0.475c5.523,0,10-4.478,10-10
			C230.979,360.699,226.502,356.221,220.979,356.221z"/>
	</g>
</g>
<g>
	<g>
		<path d="M220.979,458.479h-0.475c-5.523,0-10,4.477-10,10c0,5.522,4.477,10,10,10h0.475c5.523,0,10-4.478,10-10
			C230.979,462.956,226.502,458.479,220.979,458.479z"/>
	</g>
</g>
<g>
	<g>
		<path d="M341.5,458.479h-91.439c-5.523,0-10,4.477-10,10c0,5.522,4.477,10,10,10H341.5c5.523,0,10-4.478,10-10
			C351.5,462.956,347.023,458.479,341.5,458.479z"/>
	</g>
</g>
<g>
</g>
<g>
</g>
<g>
</g>
<g>
</g>
<g>
</g>
<g>
</g>
<g>
</g>
<g>
</g>
<g>
</g>
<g>
</g>
<g>
</g>
<g>
</g>
<g>
</g>
<g>
</g>
<g>
</g>
</svg>
