<?xml version="1.0" encoding="iso-8859-1"?>
<!-- Generator: Adobe Illustrator 19.0.0, SVG Export Plug-In . SVG Version: 6.00 Build 0)  -->
<svg version="1.1" id="Capa_1" xmlns="http://www.w3.org/2000/svg" xmlns:xlink="http://www.w3.org/1999/xlink" x="0px" y="0px"
	 viewBox="0 0 512 512" style="enable-background:new 0 0 512 512;" xml:space="preserve">
<g>
	<g>
		<g>
			<path d="M95.999,320h160c5.896,0,10.667-4.771,10.667-10.667c0-5.896-4.771-10.667-10.667-10.667h-160
				c-5.896,0-10.667,4.771-10.667,10.667C85.332,315.229,90.103,320,95.999,320z"/>
			<path d="M95.999,256h234.667c5.896,0,10.667-4.771,10.667-10.667c0-5.896-4.771-10.667-10.667-10.667H95.999
				c-5.896,0-10.667,4.771-10.667,10.667C85.332,251.229,90.103,256,95.999,256z"/>
			<path d="M202.665,362.667H95.999c-5.896,0-10.667,4.771-10.667,10.667c0,5.896,4.771,10.667,10.667,10.667h106.667
				c5.896,0,10.667-4.771,10.667-10.667C213.332,367.438,208.561,362.667,202.665,362.667z"/>
			<path d="M202.665,426.667H95.999c-5.896,0-10.667,4.771-10.667,10.667c0,5.896,4.771,10.667,10.667,10.667h106.667
				c5.896,0,10.667-4.771,10.667-10.667C213.332,431.438,208.561,426.667,202.665,426.667z"/>
			<path d="M95.999,192h234.667c5.896,0,10.667-4.771,10.667-10.667c0-5.896-4.771-10.667-10.667-10.667H95.999
				c-5.896,0-10.667,4.771-10.667,10.667C85.332,187.229,90.103,192,95.999,192z"/>
			<path d="M487.54,387.125l-64-64c-2-2-4.708-3.125-7.542-3.125h-10.667V117.333c0-2.833-1.125-5.542-3.125-7.542L295.54,3.125
				c-2-2-4.708-3.125-7.542-3.125h-224C40.478,0,21.332,19.135,21.332,42.667v426.667c0,23.531,19.146,42.667,42.667,42.667h298.667
				c2.563,0,5.146-0.927,7.167-2.771l117.333-106.667c2.166-1.969,3.438-4.729,3.5-7.646S489.603,389.188,487.54,387.125z
				 M298.665,36.417l70.25,70.25h-48.917c-11.771,0-21.333-9.573-21.333-21.333V36.417z M63.999,490.667
				c-11.771,0-21.333-9.573-21.333-21.333V42.667c0-11.76,9.563-21.333,21.333-21.333h213.333v64
				c0,23.531,19.146,42.667,42.667,42.667h64v192h-74.667c-2.833,0-5.542,1.125-7.542,3.125l-64,64
				c-2.063,2.063-3.188,4.875-3.125,7.792s1.333,5.677,3.5,7.646l96.914,88.104H63.999z M390.526,384h-55.721l14.221-42.667h27.279
				L390.526,384z M326.526,341.333L312.305,384H271.09l42.659-42.667H326.526z M272.925,405.333h39.862l22.779,56.947
				L272.925,405.333z M362.665,472.615l-26.919-67.281h53.839L362.665,472.615z M389.766,462.28l22.779-56.947h39.862
				L389.766,462.28z M413.026,384l-14.221-42.667h12.777L454.241,384H413.026z"/>
		</g>
	</g>
</g>
<g>
</g>
<g>
</g>
<g>
</g>
<g>
</g>
<g>
</g>
<g>
</g>
<g>
</g>
<g>
</g>
<g>
</g>
<g>
</g>
<g>
</g>
<g>
</g>
<g>
</g>
<g>
</g>
<g>
</g>
</svg>
