<?xml version="1.0"?>
<svg xmlns="http://www.w3.org/2000/svg" xmlns:xlink="http://www.w3.org/1999/xlink" version="1.1" id="Capa_1" x="0px" y="0px" viewBox="0 0 512 512" style="enable-background:new 0 0 512 512;" xml:space="preserve" width="512px" height="512px" class=""><g><g>
	<g>
		<path d="M263.322,226.914l-81.227-81.226l25.811-59.485L121.703,0l-25.81,59.486L77.998,41.591L45.743,73.844l18.024,18.024    L4.455,117.135l87.06,87.06l59.313-25.266l80.238,80.238c4.308,4.308,10.034,6.68,16.127,6.68c6.092,0,11.818-2.372,16.127-6.68    C272.212,250.275,272.212,235.806,263.322,226.914z M126.755,26.555L189.84,89.64l-19.304,44.489l-63.084-63.084L126.755,26.555z     M95.006,186.181l-63.882-63.882l44.233-18.842l63.882,63.882L95.006,186.181z M252.571,248.417    c-1.436,1.436-3.346,2.227-5.376,2.227c-2.031,0-3.94-0.791-5.375-2.227L67.246,73.844l10.751-10.751L252.57,237.666    C255.535,240.63,255.535,245.453,252.571,248.417z" data-original="#000000" class="active-path" fill="#000000"/>
	</g>
</g><g>
	<g>
		<path d="M282.013,283.74c-3.102,2.915-6.632,5.274-10.491,7.008l6.234,13.869c5.401-2.429,10.337-5.724,14.671-9.798    L282.013,283.74z" data-original="#000000" class="active-path" fill="#000000"/>
	</g>
</g><g>
	<g>
		<path d="M276.114,206.78l-5.763,14.072c3.916,1.604,7.522,3.843,10.718,6.654l10.041-11.418    C286.643,212.157,281.597,209.026,276.114,206.78z" data-original="#000000" class="active-path" fill="#000000"/>
	</g>
</g><g>
	<g>
		<path d="M302.259,229.758l-13.208,7.533c2.102,3.688,3.559,7.666,4.328,11.826l14.951-2.766    C307.252,240.512,305.208,234.929,302.259,229.758z" data-original="#000000" class="active-path" fill="#000000"/>
	</g>
</g><g>
	<g>
		<path d="M217.988,256.053l-15.205-0.003c-0.001,5.816,0.938,11.542,2.79,17.017l14.403-4.873    C218.656,264.293,217.987,260.208,217.988,256.053z" data-original="#000000" class="active-path" fill="#000000"/>
	</g>
</g><g>
	<g>
		<path d="M259.337,293.919c-4.187,0.365-8.502,0.03-12.574-0.989l-3.696,14.749c4.211,1.055,8.562,1.59,12.934,1.59    c1.552-0.001,3.119-0.069,4.657-0.203L259.337,293.919z" data-original="#000000" class="active-path" fill="#000000"/>
	</g>
</g><g>
	<g>
		<path d="M225.948,279.298l-12.016,9.319c3.638,4.69,7.997,8.716,12.955,11.967l8.337-12.716    C231.673,285.54,228.552,282.657,225.948,279.298z" data-original="#000000" class="active-path" fill="#000000"/>
	</g>
</g><g>
	<g>
		<path d="M293.59,261.733c-0.631,4.186-1.952,8.213-3.929,11.965l13.452,7.085c2.773-5.265,4.627-10.913,5.511-16.789    L293.59,261.733z" data-original="#000000" class="active-path" fill="#000000"/>
	</g>
</g><g>
	<g>
		<path d="M256,162.287c-5.764,0-11.602,0.55-17.354,1.637l2.821,14.94c4.824-0.91,9.713-1.372,14.533-1.372    c43.317,0,78.559,35.242,78.559,78.559c0,43.317-35.242,78.559-78.559,78.559s-78.559-35.242-78.559-78.559    c0-7.028,0.943-14.014,2.802-20.765l-14.661-4.035c-2.22,8.066-3.346,16.409-3.346,24.8c0,51.702,42.062,93.764,93.764,93.764    s93.764-42.062,93.764-93.764C349.764,204.349,307.702,162.287,256,162.287z" data-original="#000000" class="active-path" fill="#000000"/>
	</g>
</g><g>
	<g>
		<path d="M436.983,75.068C388.642,26.725,324.366,0.101,256,0.101c-28.518,0-56.556,4.674-83.335,13.893l4.95,14.377    c25.182-8.669,51.555-13.064,78.385-13.064c132.747,0,240.744,107.997,240.744,240.744S388.747,496.796,256,496.796    S15.256,388.798,15.256,256.051c0-29.183,5.187-57.74,15.416-84.878l-14.227-5.363C5.566,194.668,0.051,225.03,0.051,256.051    c0,68.366,26.624,132.642,74.966,180.983C123.358,485.376,187.634,512,256,512s132.642-26.624,180.983-74.966    c48.343-48.343,74.966-112.617,74.966-180.983S485.326,123.41,436.983,75.068z" data-original="#000000" class="active-path" fill="#000000"/>
	</g>
</g><g>
	<g>
		<path d="M76.78,345.222l-13.601,6.795c2.334,4.673,4.877,9.328,7.557,13.834l13.069-7.771    C81.313,353.891,78.95,349.565,76.78,345.222z" data-original="#000000" class="active-path" fill="#000000"/>
	</g>
</g><g>
	<g>
		<path d="M65.652,318.134l-14.453,4.725c1.629,4.983,3.464,9.964,5.455,14.805l14.063-5.782    C68.868,327.387,67.164,322.762,65.652,318.134z" data-original="#000000" class="active-path" fill="#000000"/>
	</g>
</g><g>
	<g>
		<path d="M91.748,370.389l-12.465,8.706c2.994,4.288,6.185,8.521,9.483,12.581l11.802-9.587    C97.502,378.312,94.534,374.376,91.748,370.389z" data-original="#000000" class="active-path" fill="#000000"/>
	</g>
</g><g>
	<g>
		<path d="M58.635,289.736l-14.989,2.55c0.877,5.155,1.958,10.345,3.212,15.424l14.761-3.646    C60.455,299.346,59.449,294.525,58.635,289.736z" data-original="#000000" class="active-path" fill="#000000"/>
	</g>
</g><g>
	<g>
		<path d="M110.211,393.115l-11.073,10.418c3.583,3.81,7.351,7.535,11.198,11.072l10.293-11.192    C117.05,400.123,113.545,396.658,110.211,393.115z" data-original="#000000" class="active-path" fill="#000000"/>
	</g>
</g><g>
	<g>
		<path d="M364.626,424.147c-4.08,2.647-8.311,5.176-12.574,7.518l7.319,13.327c4.587-2.519,9.139-5.241,13.529-8.088    L364.626,424.147z" data-original="#000000" class="active-path" fill="#000000"/>
	</g>
</g><g>
	<g>
		<path d="M210.144,450.951l-3.483,14.801c5.088,1.196,10.29,2.219,15.46,3.039l2.383-15.016    C219.701,453.013,214.869,452.063,210.144,450.951z" data-original="#000000" class="active-path" fill="#000000"/>
	</g>
</g><g>
	<g>
		<path d="M387.966,406.472c-3.648,3.206-7.466,6.322-11.348,9.262l9.179,12.121c4.175-3.162,8.282-6.513,12.206-9.961    L387.966,406.472z" data-original="#000000" class="active-path" fill="#000000"/>
	</g>
</g><g>
	<g>
		<path d="M239.035,455.537l-1.277,15.151c5.198,0.438,10.49,0.69,15.731,0.751l0.176-15.204    C248.79,456.179,243.869,455.945,239.035,455.537z" data-original="#000000" class="active-path" fill="#000000"/>
	</g>
</g><g>
	<g>
		<path d="M311.5,448.425c-4.669,1.349-9.447,2.54-14.201,3.541l3.132,14.88c5.118-1.078,10.262-2.361,15.29-3.813L311.5,448.425z" data-original="#000000" class="active-path" fill="#000000"/>
	</g>
</g><g>
	<g>
		<path d="M338.958,438.242c-4.428,2.024-8.983,3.907-13.54,5.597l5.287,14.256c4.906-1.82,9.809-3.847,14.574-6.025    L338.958,438.242z" data-original="#000000" class="active-path" fill="#000000"/>
	</g>
</g><g>
	<g>
		<path d="M131.761,412.926l-9.451,11.91c4.095,3.251,8.362,6.391,12.681,9.334l8.562-12.564    C139.536,418.869,135.57,415.949,131.761,412.926z" data-original="#000000" class="active-path" fill="#000000"/>
	</g>
</g><g>
	<g>
		<path d="M48.384,198.614c-1.398,5.045-2.624,10.202-3.647,15.332l14.912,2.973c0.949-4.766,2.089-9.559,3.388-14.246    L48.384,198.614z" data-original="#000000" class="active-path" fill="#000000"/>
	</g>
</g><g>
	<g>
		<path d="M42.229,229.503c-0.64,5.182-1.098,10.463-1.359,15.698l15.185,0.76c0.244-4.868,0.67-9.777,1.265-14.592L42.229,229.503z    " data-original="#000000" class="active-path" fill="#000000"/>
	</g>
</g><g>
	<g>
		<path d="M55.854,260.608l-15.201,0.342c0.118,5.239,0.429,10.527,0.923,15.719l15.136-1.442    C56.253,270.398,55.964,265.48,55.854,260.608z" data-original="#000000" class="active-path" fill="#000000"/>
	</g>
</g><g>
	<g>
		<path d="M155.942,429.402l-7.624,13.156c4.522,2.62,9.198,5.107,13.899,7.39l6.642-13.677    C164.491,434.149,160.144,431.838,155.942,429.402z" data-original="#000000" class="active-path" fill="#000000"/>
	</g>
</g><g>
	<g>
		<path d="M182.239,442.171l-5.619,14.128c4.866,1.936,9.861,3.713,14.846,5.281l4.563-14.504    C191.399,445.618,186.759,443.969,182.239,442.171z" data-original="#000000" class="active-path" fill="#000000"/>
	</g>
</g><g>
	<g>
		<path d="M282.873,454.453c-4.808,0.648-9.71,1.126-14.569,1.423l0.924,15.177c5.228-0.318,10.503-0.834,15.676-1.532    L282.873,454.453z" data-original="#000000" class="active-path" fill="#000000"/>
	</g>
</g><g>
	<g>
		<path d="M362.882,69.081l-7.569,13.188c4.213,2.418,8.391,5.023,12.42,7.743l8.51-12.602    C371.91,74.484,367.414,71.682,362.882,69.081z" data-original="#000000" class="active-path" fill="#000000"/>
	</g>
</g><g>
	<g>
		<path d="M388.964,86.69l-9.402,11.949c3.822,3.008,7.581,6.192,11.173,9.468l10.244-11.237    C397.115,93.348,393.073,89.924,388.964,86.69z" data-original="#000000" class="active-path" fill="#000000"/>
	</g>
</g><g>
	<g>
		<path d="M334.519,55.46l-5.559,14.153c4.517,1.774,9.028,3.739,13.408,5.843l6.583-13.706    C344.236,59.487,339.381,57.37,334.519,55.46z" data-original="#000000" class="active-path" fill="#000000"/>
	</g>
</g><g>
	<g>
		<path d="M425.801,362.003c-2.578,4.115-5.342,8.191-8.216,12.114l12.265,8.987c3.091-4.219,6.064-8.604,8.837-13.033    L425.801,362.003z" data-original="#000000" class="active-path" fill="#000000"/>
	</g>
</g><g>
	<g>
		<path d="M241.837,41.111l0.995,15.172c4.36-0.286,8.789-0.431,13.167-0.431l1.479,0.005l0.103-15.205    C252.347,40.619,247.05,40.768,241.837,41.111z" data-original="#000000" class="active-path" fill="#000000"/>
	</g>
</g><g>
	<g>
		<path d="M304.436,46.14l-3.417,14.816c4.738,1.093,9.492,2.376,14.13,3.813l4.5-14.524    C314.655,48.697,309.536,47.317,304.436,46.14z" data-original="#000000" class="active-path" fill="#000000"/>
	</g>
</g><g>
	<g>
		<path d="M226.161,42.72c-5.178,0.723-10.398,1.649-15.517,2.752l3.203,14.863c4.756-1.025,9.608-1.885,14.418-2.557L226.161,42.72    z" data-original="#000000" class="active-path" fill="#000000"/>
	</g>
</g><g>
	<g>
		<path d="M408.505,385.607c-3.15,3.703-6.477,7.338-9.889,10.804l10.835,10.666c3.668-3.726,7.246-7.635,10.633-11.617    L408.505,385.607z" data-original="#000000" class="active-path" fill="#000000"/>
	</g>
</g><g>
	<g>
		<path d="M273.319,41.338l-1.211,15.156c4.847,0.387,9.738,0.959,14.54,1.7l2.316-15.028    C283.799,42.37,278.535,41.755,273.319,41.338z" data-original="#000000" class="active-path" fill="#000000"/>
	</g>
</g><g>
	<g>
		<path d="M449.207,308.586c-1.276,4.685-2.743,9.385-4.364,13.97l14.337,5.064c1.744-4.937,3.325-9.997,4.697-15.042    L449.207,308.586z" data-original="#000000" class="active-path" fill="#000000"/>
	</g>
</g><g>
	<g>
		<path d="M448.406,159.254l-13.572,6.855c2.194,4.344,4.253,8.823,6.12,13.312l14.039-5.84    C452.985,168.75,450.768,163.929,448.406,159.254z" data-original="#000000" class="active-path" fill="#000000"/>
	</g>
</g><g>
	<g>
		<path d="M468.199,218.902l-14.98,2.612c0.835,4.792,1.503,9.671,1.986,14.502l15.13-1.508    C469.815,229.309,469.097,224.058,468.199,218.902z" data-original="#000000" class="active-path" fill="#000000"/>
	</g>
</g><g>
	<g>
		<path d="M460.511,188.362l-14.432,4.785c1.533,4.62,2.909,9.348,4.093,14.053l14.746-3.712    C463.642,198.424,462.159,193.334,460.511,188.362z" data-original="#000000" class="active-path" fill="#000000"/>
	</g>
</g><g>
	<g>
		<path d="M432.186,132.248l-12.43,8.759c2.802,3.976,5.492,8.105,7.997,12.275l13.035-7.831    C438.094,140.968,435.199,136.525,432.186,132.248z" data-original="#000000" class="active-path" fill="#000000"/>
	</g>
</g><g>
	<g>
		<path d="M439.47,336.153c-1.945,4.439-4.084,8.871-6.359,13.173l13.441,7.108c2.447-4.629,4.75-9.4,6.843-14.177L439.47,336.153z" data-original="#000000" class="active-path" fill="#000000"/>
	</g>
</g><g>
	<g>
		<path d="M412.228,107.895l-11.033,10.465c3.351,3.533,6.611,7.229,9.692,10.986l11.76-9.639    C419.336,115.668,415.831,111.693,412.228,107.895z" data-original="#000000" class="active-path" fill="#000000"/>
	</g>
</g><g>
	<g>
		<path d="M471.325,250.222l-15.199,0.411c0.048,1.779,0.072,3.602,0.072,5.417c0,3.065-0.07,6.17-0.21,9.229l15.189,0.692    c0.15-3.287,0.226-6.625,0.226-9.921C471.403,254.098,471.377,252.138,471.325,250.222z" data-original="#000000" class="active-path" fill="#000000"/>
	</g>
</g><g>
	<g>
		<path d="M454.789,279.871c-0.576,4.834-1.337,9.699-2.263,14.461l14.926,2.901c0.995-5.126,1.815-10.363,2.435-15.564    L454.789,279.871z" data-original="#000000" class="active-path" fill="#000000"/>
	</g>
</g><g>
	<g>
		<path d="M256,81.194c-8.712,0-17.573,0.676-26.334,2.009l2.286,15.033c8.007-1.218,16.099-1.837,24.048-1.837    c88.032,0,159.652,71.619,159.652,159.652S344.032,415.702,256,415.702S96.348,344.083,96.348,256.051    c0-8.489,0.697-17.1,2.075-25.594l-15.009-2.433c-1.506,9.296-2.271,18.726-2.271,28.027c0,96.416,78.44,174.856,174.856,174.856    s174.856-78.44,174.856-174.856S352.416,81.194,256,81.194z" data-original="#000000" class="active-path" fill="#000000"/>
	</g>
</g><g>
	<g>
		<path d="M197.772,359.928l-7.457,13.25c4.665,2.626,9.535,4.994,14.476,7.04l5.814-14.049    C206.226,364.355,201.908,362.256,197.772,359.928z" data-original="#000000" class="active-path" fill="#000000"/>
	</g>
</g><g>
	<g>
		<path d="M174.77,343.078l-10.38,11.111c3.911,3.654,8.082,7.109,12.396,10.267l8.984-12.266    C181.943,349.387,178.241,346.32,174.77,343.078z" data-original="#000000" class="active-path" fill="#000000"/>
	</g>
</g><g>
	<g>
		<path d="M156.381,321.269l-12.708,8.35c2.936,4.467,6.175,8.81,9.629,12.905l11.624-9.802    C161.86,329.086,158.986,325.233,156.381,321.269z" data-original="#000000" class="active-path" fill="#000000"/>
	</g>
</g><g>
	<g>
		<path d="M224.099,370.82l-4.078,14.647c5.156,1.434,10.456,2.57,15.753,3.373l2.281-15.033    C233.361,373.097,228.666,372.092,224.099,370.82z" data-original="#000000" class="active-path" fill="#000000"/>
	</g>
</g><g>
	<g>
		<path d="M266.559,374.692c-4.722,0.418-9.55,0.552-14.281,0.406l-0.469,15.198c1.393,0.043,2.791,0.064,4.191,0.064    c3.961,0,7.963-0.175,11.895-0.522L266.559,374.692z" data-original="#000000" class="active-path" fill="#000000"/>
	</g>
</g><g>
	<g>
		<path d="M294.445,368.79c-4.494,1.537-9.125,2.814-13.768,3.795l3.146,14.877c5.241-1.109,10.47-2.55,15.541-4.285L294.445,368.79    z" data-original="#000000" class="active-path" fill="#000000"/>
	</g>
</g><g>
	<g>
		<path d="M320.118,356.383c-4,2.567-8.193,4.914-12.463,6.978l6.618,13.69c4.815-2.328,9.544-4.976,14.055-7.87L320.118,356.383z" data-original="#000000" class="active-path" fill="#000000"/>
	</g>
</g><g>
	<g>
		<path d="M123.003,237.279c-0.745,5.293-1.178,10.696-1.284,16.057l15.201,0.302c0.095-4.754,0.478-9.544,1.14-14.236    L123.003,237.279z" data-original="#000000" class="active-path" fill="#000000"/>
	</g>
</g><g>
	<g>
		<path d="M231.053,124.072c-5.263,0.995-10.52,2.323-15.624,3.946l4.607,14.489c4.522-1.437,9.179-2.614,13.842-3.495    L231.053,124.072z" data-original="#000000" class="active-path" fill="#000000"/>
	</g>
</g><g>
	<g>
		<path d="M247.034,122.039l1.01,15.172c4.731-0.316,9.573-0.346,14.293-0.097l0.798-15.184    C257.816,121.65,252.363,121.684,247.034,122.039z" data-original="#000000" class="active-path" fill="#000000"/>
	</g>
</g><g>
	<g>
		<path d="M137.481,267.914l-15.131,1.503c0.529,5.333,1.388,10.683,2.552,15.902l14.841-3.311    C138.711,277.383,137.95,272.641,137.481,267.914z" data-original="#000000" class="active-path" fill="#000000"/>
	</g>
</g><g>
	<g>
		<path d="M131.302,206.202c-1.994,4.974-3.707,10.116-5.089,15.285l14.69,3.926c1.224-4.582,2.742-9.141,4.511-13.55    L131.302,206.202z" data-original="#000000" class="active-path" fill="#000000"/>
	</g>
</g><g>
	<g>
		<path d="M143.691,295.732l-14.332,5.081c1.787,5.039,3.903,10.03,6.29,14.836l13.617-6.765    C147.15,304.623,145.275,300.199,143.691,295.732z" data-original="#000000" class="active-path" fill="#000000"/>
	</g>
</g><g>
	<g>
		<path d="M342.13,338.232c-3.282,3.437-6.804,6.711-10.465,9.732l9.675,11.729c4.124-3.402,8.089-7.09,11.786-10.961    L342.13,338.232z" data-original="#000000" class="active-path" fill="#000000"/>
	</g>
</g><g>
	<g>
		<path d="M359.228,315.415c-2.372,4.107-5.018,8.116-7.866,11.917l12.166,9.119c3.21-4.283,6.194-8.803,8.867-13.433    L359.228,315.415z" data-original="#000000" class="active-path" fill="#000000"/>
	</g>
</g><g>
	<g>
		<path d="M309.921,133.042l-6.124,13.918c4.337,1.908,8.608,4.102,12.694,6.522l7.747-13.082    C319.63,137.669,314.815,135.195,309.921,133.042z" data-original="#000000" class="active-path" fill="#000000"/>
	</g>
</g><g>
	<g>
		<path d="M337.572,149.413l-9.25,12.067c3.764,2.886,7.399,6.032,10.801,9.352l10.618-10.884    C345.909,156.209,341.815,152.663,337.572,149.413z" data-original="#000000" class="active-path" fill="#000000"/>
	</g>
</g><g>
	<g>
		<path d="M370.409,289.209c-1.322,4.552-2.936,9.075-4.8,13.442l13.985,5.968c2.102-4.928,3.926-10.032,5.417-15.171    L370.409,289.209z" data-original="#000000" class="active-path" fill="#000000"/>
	</g>
</g><g>
	<g>
		<path d="M279.136,123.736l-2.612,14.979c4.675,0.815,9.347,1.924,13.885,3.296l4.401-14.554    C289.686,125.908,284.412,124.656,279.136,123.736z" data-original="#000000" class="active-path" fill="#000000"/>
	</g>
</g><g>
	<g>
		<path d="M377.633,199.109l-13.761,6.465c2.02,4.301,3.798,8.765,5.283,13.27l14.441-4.762    C381.919,209,379.913,203.962,377.633,199.109z" data-original="#000000" class="active-path" fill="#000000"/>
	</g>
</g><g>
	<g>
		<path d="M375.002,261.08c-0.199,4.756-0.686,9.536-1.448,14.206l15.007,2.447c0.859-5.268,1.407-10.657,1.631-16.019    L375.002,261.08z" data-original="#000000" class="active-path" fill="#000000"/>
	</g>
</g><g>
	<g>
		<path d="M360.573,171.853l-11.833,9.548c2.981,3.696,5.772,7.611,8.293,11.636l12.887-8.07    C367.078,180.431,363.935,176.018,360.573,171.853z" data-original="#000000" class="active-path" fill="#000000"/>
	</g>
</g><g>
	<g>
		<path d="M387.709,229.671l-14.91,2.981c0.928,4.644,1.584,9.401,1.951,14.142l15.159-1.17    C389.497,240.278,388.756,234.91,387.709,229.671z" data-original="#000000" class="active-path" fill="#000000"/>
	</g>
</g></g> </svg>
