<?xml version="1.0"?>
<svg xmlns="http://www.w3.org/2000/svg" viewBox="0 0 50 50">
    <path style="line-height:normal;text-indent:0;text-align:start;text-decoration-line:none;text-decoration-style:solid;text-decoration-color:#000;text-transform:none;block-progression:tb;isolation:auto;mix-blend-mode:normal" d="M 4.984375 5 C 3.3476207 5 2 6.3476207 2 7.984375 L 2 42.015625 C 2 43.652379 3.3476207 45 4.984375 45 L 45.015625 45 C 46.652379 45 48 43.652379 48 42.015625 L 48 7.984375 C 48 6.3476207 46.652379 5 45.015625 5 L 4.984375 5 z M 4.984375 7 L 45.015625 7 C 45.570871 7 46 7.4291293 46 7.984375 L 46 11 L 4 11 L 4 7.984375 C 4 7.4291293 4.4291293 7 4.984375 7 z M 7 8 A 1 1 0 0 0 6 9 A 1 1 0 0 0 7 10 A 1 1 0 0 0 8 9 A 1 1 0 0 0 7 8 z M 10 8 A 1 1 0 0 0 9 9 A 1 1 0 0 0 10 10 A 1 1 0 0 0 11 9 A 1 1 0 0 0 10 8 z M 4 13 L 46 13 L 46 27 L 4 27 L 4 13 z M 4 29 L 24 29 L 24 43 L 4.984375 43 C 4.4291293 43 4 42.570871 4 42.015625 L 4 29 z M 26 29 L 46 29 L 46 42.015625 C 46 42.570871 45.570871 43 45.015625 43 L 26 43 L 26 29 z M 6 31 L 6 33 L 22 33 L 22 31 L 6 31 z M 6 35 L 6 37 L 22 37 L 22 35 L 6 35 z M 6 39 L 6 41 L 15 41 L 15 39 L 6 39 z"/>
</svg>
