<svg width="50px" height="54px" viewBox="28 308 50 54" version="1.1" xmlns="http://www.w3.org/2000/svg" xmlns:xlink="http://www.w3.org/1999/xlink">
    <!-- Generator: Sketch 39 (31667) - http://www.bohemiancoding.com/sketch -->
    <desc>Created with Sketch.</desc>
    <defs></defs>
    <path d="M37.1171253,353.366 L35.0571253,360.508 L39.8671253,360.508 L41.2051253,355.867 L37.1171253,353.366 Z M61.0691253,353.574 L63.0691253,360.508 L58.2591253,360.508 L56.8901253,355.759 L61.0691253,353.574 Z M59.7551253,347.72 C53.8971253,353.582 44.3951253,353.576 38.5291253,347.717 C32.6821253,341.863 32.6721253,332.36 38.5331253,326.499 C44.3951253,320.646 53.9001253,320.646 59.7551253,326.499 C65.6171253,332.36 65.6201253,341.863 59.7551253,347.72 L59.7551253,347.72 Z M63.3881253,322.865 C55.5271253,315.007 42.7691253,315.007 34.8961253,322.865 C27.0291253,330.731 27.0421253,343.49 34.8901253,351.347 C42.7691253,359.213 55.5231253,359.22 63.3881253,351.351 C71.2601253,343.49 71.2541253,330.731 63.3881253,322.865 L63.3881253,322.865 Z M52.3251253,340.292 C50.5691253,342.049 47.7211253,342.047 45.9611253,340.29 C44.2091253,338.536 44.2071253,335.687 45.9621253,333.932 C47.7211253,332.176 50.5691253,332.176 52.3251253,333.932 C54.0811253,335.687 54.0831253,338.536 52.3251253,340.292 L52.3251253,340.292 Z M56.4011253,329.855 C52.3951253,325.851 45.8951253,325.851 41.8851253,329.855 C37.8771253,333.861 37.8841253,340.36 41.8821253,344.364 C45.8951253,348.372 52.3931253,348.375 56.4011253,344.367 C60.4111253,340.36 60.4071253,333.861 56.4011253,329.855 L56.4011253,329.855 Z M59.7551253,347.72 C53.8971253,353.582 44.3951253,353.576 38.5291253,347.717 C32.6821253,341.863 32.6721253,332.36 38.5331253,326.499 C44.3951253,320.646 53.9001253,320.646 59.7551253,326.499 C65.6171253,332.36 65.6201253,341.863 59.7551253,347.72 L59.7551253,347.72 Z M63.3881253,322.865 C55.5271253,315.007 42.7691253,315.007 34.8961253,322.865 C27.0291253,330.731 27.0421253,343.49 34.8901253,351.347 C42.7691253,359.213 55.5231253,359.22 63.3881253,351.351 C71.2601253,343.49 71.2541253,330.731 63.3881253,322.865 L63.3881253,322.865 Z M52.3251253,340.292 C50.5691253,342.049 47.7211253,342.047 45.9611253,340.29 C44.2091253,338.536 44.2071253,335.687 45.9621253,333.932 C47.7211253,332.176 50.5691253,332.176 52.3251253,333.932 C54.0811253,335.687 54.0831253,338.536 52.3251253,340.292 L52.3251253,340.292 Z M56.4011253,329.855 C52.3951253,325.851 45.8951253,325.851 41.8851253,329.855 C37.8771253,333.861 37.8841253,340.36 41.8821253,344.364 C45.8951253,348.372 52.3931253,348.375 56.4011253,344.367 C60.4111253,340.36 60.4071253,333.861 56.4011253,329.855 L56.4011253,329.855 Z M64.8501253,320.915 L63.5901253,317.137 L70.7261253,310 L71.9861253,313.779 L64.8501253,320.915 L64.8501253,320.915 Z M64.8501253,320.915 L68.6281253,322.175 L75.7641253,315.038 L71.9861253,313.779 L64.8501253,320.915 L64.8501253,320.915 Z M48.9001253,336.905 L73.0661253,312.738 L48.9001253,336.905 Z" id="Master-Icons-07" stroke="#42484D" stroke-width="1.5" stroke-linecap="round" fill="none"></path>
</svg>