<?xml version="1.0" encoding="UTF-8" standalone="no"?>
<svg width="51px" height="51px" viewBox="0 0 51 51" version="1.1" xmlns="http://www.w3.org/2000/svg" xmlns:xlink="http://www.w3.org/1999/xlink">
    <!-- Generator: Sketch 39.1 (31720) - http://www.bohemiancoding.com/sketch -->
    <title>Group 4</title>
    <desc>Created with Sketch.</desc>
    <defs></defs>
    <g id="OS-&amp;-OE-(ITALY-)" stroke="none" stroke-width="1" fill="none" fill-rule="evenodd">
        <g id="How-it-works---desktop" transform="translate(-986.000000, -2715.000000)" stroke="#484F59" stroke-width="1.5">
            <g id="Step-3" transform="translate(0.000000, 2217.000000)">
                <g id="Live-Conversation-Classes" transform="translate(963.000000, 473.000000)">
                    <g id="Page-1" transform="translate(0.000000, 2.000000)">
                        <g id="Group-4" transform="translate(23.000000, 23.000000)">
                            <path d="M25.4996,27.0803 L25.4996,21.7473" id="Stroke-1"></path>
                            <polyline id="Stroke-2" points="19.8457 33.0825 25.4997 27.4285 31.1227 33.0525"></polyline>
                            <g id="-" transform="translate(0.000000, 0.506100)">
                                <path d="M18.8384,46.1281 C16.8314,48.1431 14.1704,49.2491 11.3384,49.2501 C5.4994,49.2541 0.7494,44.5061 0.7504,38.6671 C0.7504,35.8501 1.8464,33.1981 3.8404,31.1961 C5.8434,29.1851 8.5064,28.0771 11.3334,28.0771 C14.1594,28.0771 16.8154,29.1761 18.8194,31.1811 C20.8224,33.1811 21.9244,35.8411 21.9264,38.6631 C21.9284,41.4771 20.8324,44.1271 18.8384,46.1281 L18.8384,46.1281 Z" id="Stroke-3"></path>
                                <path d="M16.6407,40.4365 C13.0497,39.3645 9.2227,39.3645 5.6317,40.4365 C4.5917,40.7545 3.7707,41.9665 3.7697,43.0085 L3.7697,46.0575 C4.7287,47.0395 5.8757,47.8365 7.1557,48.3875 L7.1557,43.6465 L7.1557,48.3875 C8.4397,48.9425 9.8527,49.2515 11.3387,49.2505 C12.6527,49.2505 13.9257,49.0015 15.1187,48.5445 L15.1187,43.6465 L15.1187,48.5445 C16.3577,48.0695 17.5017,47.3575 18.5017,46.4335 L18.5017,43.0085 C18.5017,41.9645 17.6827,40.7545 16.6407,40.4365 L16.6407,40.4365 Z" id="Stroke-5"></path>
                                <path d="M11.1367,32.019 C9.0687,32.019 7.3937,33.695 7.3937,35.762 C7.3937,37.828 9.0687,39.504 11.1367,39.504 C13.2037,39.504 14.8797,37.828 14.8797,35.762 C14.8797,33.695 13.2037,32.019 11.1367,32.019 L11.1367,32.019 Z" id="Stroke-7"></path>
                                <path d="M47.1602,46.1281 C45.1522,48.1431 42.4912,49.2491 39.6592,49.2501 C33.8202,49.2541 29.0702,44.5061 29.0712,38.6671 C29.0712,35.8501 30.1682,33.1981 32.1622,31.1961 C34.1652,29.1851 36.8272,28.0771 39.6552,28.0771 C42.4802,28.0771 45.1372,29.1761 47.1412,31.1811 C49.1432,33.1811 50.2462,35.8411 50.2492,38.6631 C50.2492,41.4771 49.1542,44.1271 47.1602,46.1281 L47.1602,46.1281 Z" id="Stroke-9"></path>
                                <path d="M44.9619,40.4365 C41.3709,39.3645 37.5439,39.3645 33.9539,40.4365 C32.9129,40.7545 32.0929,41.9665 32.0909,43.0085 L32.0909,46.0575 C33.0509,47.0395 34.1979,47.8365 35.4769,48.3875 L35.4769,43.6465 L35.4769,48.3875 C36.7609,48.9425 38.1739,49.2515 39.6589,49.2505 C40.9739,49.2505 42.2469,49.0015 43.4399,48.5445 L43.4399,43.6465 L43.4399,48.5445 C44.6789,48.0695 45.8229,47.3575 46.8239,46.4335 L46.8239,43.0085 C46.8229,41.9645 46.0039,40.7545 44.9619,40.4365 L44.9619,40.4365 Z" id="Stroke-11"></path>
                                <path d="M39.4581,32.019 C37.3911,32.019 35.7151,33.695 35.7151,35.762 C35.7151,37.828 37.3911,39.504 39.4581,39.504 C41.5251,39.504 43.2011,37.828 43.2011,35.762 C43.2011,33.695 41.5251,32.019 39.4581,32.019 L39.4581,32.019 Z" id="Stroke-13"></path>
                                <path d="M32.9996,18.2949 C30.9926,20.3089 28.3306,21.4169 25.4996,21.4169 C19.6596,21.4209 14.9106,16.6729 14.9116,10.8339 C14.9116,8.0169 16.0076,5.3649 18.0016,3.3629 C20.0046,1.3509 22.6656,0.2439 25.4936,0.2439 C28.3206,0.2429 30.9756,1.3429 32.9806,3.3479 C34.9826,5.3479 36.0856,8.0079 36.0876,10.8289 C36.0886,13.6449 34.9936,16.2939 32.9996,18.2949 L32.9996,18.2949 Z" id="Stroke-15"></path>
                                <path d="M30.8018,12.6025 C27.2098,11.5305 23.3838,11.5305 19.7928,12.6025 C18.7518,12.9205 17.9318,14.1335 17.9308,15.1765 L17.9308,18.2245 C18.8898,19.2065 20.0368,20.0035 21.3158,20.5545 L21.3158,15.8125 L21.3158,20.5545 C22.5998,21.1095 24.0138,21.4175 25.4998,21.4175 C26.8128,21.4165 28.0868,21.1685 29.2788,20.7115 L29.2788,15.8125 L29.2788,20.7115 C30.5188,20.2365 31.6628,19.5245 32.6638,18.6005 L32.6638,15.1765 C32.6628,14.1305 31.8438,12.9205 30.8018,12.6025 L30.8018,12.6025 Z" id="Stroke-17"></path>
                                <path d="M25.2974,4.1861 C23.2304,4.1861 21.5544,5.8611 21.5544,7.9291 C21.5544,9.9951 23.2304,11.6711 25.2974,11.6711 C27.3644,11.6711 29.0404,9.9951 29.0404,7.9291 C29.0404,5.8611 27.3644,4.1861 25.2974,4.1861 L25.2974,4.1861 Z" id="Stroke-19"></path>
                            </g>
                        </g>
                    </g>
                </g>
            </g>
        </g>
    </g>
</svg>