<svg width="50px" height="53px" viewBox="24 24 50 53" version="1.1" xmlns="http://www.w3.org/2000/svg" xmlns:xlink="http://www.w3.org/1999/xlink">
    <!-- Generator: Sketch 39 (31667) - http://www.bohemiancoding.com/sketch -->
    <desc>Created with Sketch.</desc>
    <defs></defs>
    <g id="Page-1" stroke="none" stroke-width="1" fill="none" fill-rule="evenodd" transform="translate(24.000000, 25.000000)">
        <polyline id="Stroke-1" stroke="#484F59" stroke-width="1.5" points="3.1416 31.1009 7.8756 26.3729 12.6086 31.1009"></polyline>
        <g id="Group-20" transform="translate(0.000000, 0.404100)" stroke="#484F59" stroke-width="1.5">
            <path d="M7.7514,26.831 L7.7514,38.959 C7.7514,41.593 9.8884,43.733 12.5254,43.733 L24.2884,43.733" id="Stroke-2"></path>
            <polyline id="Stroke-4" points="46.7881 18.2536 42.0551 22.9826 37.3211 18.2536"></polyline>
            <path d="M42.1787,22.1199 L42.1787,9.9919 C42.1787,7.3569 40.0397,5.2189 37.4047,5.2189 L25.6417,5.2189" id="Stroke-6"></path>
            <path d="M20.3174,19.8721 C18.1464,22.0521 15.2664,23.2491 12.2044,23.2501 C5.8864,23.2541 0.7484,18.1191 0.7504,11.8021 C0.7504,8.7541 1.9364,5.8851 4.0934,3.7191 C6.2594,1.5441 9.1404,0.3461 12.1984,0.3461 C15.2554,0.3441 18.1294,1.5331 20.2974,3.7031 C22.4634,5.8671 23.6554,8.7441 23.6594,11.7971 C23.6604,14.8411 22.4744,17.7081 20.3174,19.8721 L20.3174,19.8721 Z" id="Stroke-8"></path>
            <path d="M17.9389,13.7148 C14.0549,12.5568 9.9149,12.5568 6.0309,13.7148 C4.9049,14.0598 4.0179,15.3708 4.0169,16.4978 L4.0169,19.7958 C5.0549,20.8588 6.2949,21.7208 7.6789,22.3178 L7.6789,17.1878 L7.6789,22.3178 C9.0669,22.9168 10.5969,23.2518 12.2039,23.2498 C13.6249,23.2498 15.0029,22.9818 16.2929,22.4868 L16.2929,17.1878 L16.2929,22.4868 C17.6339,21.9728 18.8709,21.2038 19.9539,20.2038 L19.9539,16.4978 C19.9529,15.3678 19.0669,14.0598 17.9389,13.7148 L17.9389,13.7148 Z" id="Stroke-10"></path>
            <path d="M11.9854,4.6098 C9.7494,4.6098 7.9364,6.4218 7.9364,8.6588 C7.9364,10.8938 9.7494,12.7068 11.9854,12.7068 C14.2214,12.7068 16.0344,10.8938 16.0344,8.6588 C16.0344,6.4218 14.2214,4.6098 11.9854,4.6098 L11.9854,4.6098 Z" id="Stroke-12"></path>
            <path d="M45.8174,45.8721 C43.6464,48.0521 40.7664,49.2491 37.7044,49.2501 C31.3864,49.2541 26.2484,44.1191 26.2504,37.8021 C26.2504,34.7541 27.4364,31.8851 29.5934,29.7191 C31.7594,27.5441 34.6404,26.3461 37.6984,26.3461 C40.7554,26.3441 43.6294,27.5331 45.7974,29.7031 C47.9634,31.8671 49.1554,34.7441 49.1594,37.7971 C49.1604,40.8411 47.9744,43.7081 45.8174,45.8721 L45.8174,45.8721 Z" id="Stroke-14"></path>
            <path d="M43.4389,39.7151 C39.5549,38.5571 35.4149,38.5571 31.5309,39.7151 C30.4049,40.0601 29.5179,41.3711 29.5169,42.4981 L29.5169,45.7961 C30.5549,46.8591 31.7949,47.7211 33.1789,48.3181 L33.1789,43.1871 L33.1789,48.3181 C34.5669,48.9171 36.0969,49.2511 37.7039,49.2501 C39.1249,49.2501 40.5029,48.9811 41.7929,48.4871 L41.7929,43.1871 L41.7929,48.4871 C43.1339,47.9731 44.3709,47.2041 45.4539,46.2041 L45.4539,42.4981 C45.4529,41.3681 44.5669,40.0601 43.4389,39.7151 L43.4389,39.7151 Z" id="Stroke-16"></path>
            <path d="M37.4854,30.6098 C35.2494,30.6098 33.4364,32.4218 33.4364,34.6588 C33.4364,36.8938 35.2494,38.7068 37.4854,38.7068 C39.7214,38.7068 41.5344,36.8938 41.5344,34.6588 C41.5344,32.4218 39.7214,30.6098 37.4854,30.6098 L37.4854,30.6098 Z" id="Stroke-18"></path>
        </g>
    </g>
</svg>