<?xml version="1.0" encoding="iso-8859-1"?>
<!-- Generator: Adobe Illustrator 16.0.0, SVG Export Plug-In . SVG Version: 6.00 Build 0)  -->
<!DOCTYPE svg PUBLIC "-//W3C//DTD SVG 1.1//EN" "http://www.w3.org/Graphics/SVG/1.1/DTD/svg11.dtd">
<svg version="1.1" id="Capa_1" xmlns="http://www.w3.org/2000/svg" xmlns:xlink="http://www.w3.org/1999/xlink" x="0px" y="0px"
	 width="48.696px" height="48.695px" viewBox="0 0 48.696 48.695" style="enable-background:new 0 0 48.696 48.695;"
	 xml:space="preserve">
<g>
	<g id="Layer_21_18_">
		<g>
			<path d="M43.26,9.291H5.443v24.936H43.26V9.291L43.26,9.291z M40.426,31.395H8.276V12.123h32.15V31.395L40.426,31.395z"/>
			<path d="M43.254,35.385H24.887H23.81H5.442L0,35.658v3.746h48.696v-3.746L43.254,35.385z M29.696,37.854H18.363v-0.75h11.333
				V37.854z"/>
			<path d="M11.963,21.5h25.166v-6.166H11.963V21.5z M12.463,15.834h24.166V21H12.463V15.834z"/>
			<path d="M11.939,28.047h7.739v-5.563h-7.739V28.047z M12.439,22.985h6.739v4.563h-6.739V22.985z"/>
			<path d="M20.645,28.047h7.738v-5.563h-7.738V28.047z M21.145,22.985h6.738v4.563h-6.738V22.985z"/>
			<path d="M29.413,28.047h7.738v-5.563h-7.738V28.047z M29.913,22.985h6.738v4.563h-6.738V22.985z"/>
			<rect x="11.939" y="29.312" width="6.976" height="0.484"/>
			<rect x="11.939" y="30.203" width="7.739" height="0.484"/>
			<rect x="20.644" y="29.312" width="6.976" height="0.484"/>
			<rect x="20.644" y="30.203" width="7.739" height="0.484"/>
			<rect x="29.489" y="29.273" width="6.977" height="0.484"/>
			<rect x="29.489" y="30.164" width="7.738" height="0.484"/>
			<path d="M23.499,13.313H11.936v1.406h11.563V13.313z M22.999,14.219H12.436v-0.406h10.563V14.219z"/>
		</g>
	</g>
</g>
<g>
</g>
<g>
</g>
<g>
</g>
<g>
</g>
<g>
</g>
<g>
</g>
<g>
</g>
<g>
</g>
<g>
</g>
<g>
</g>
<g>
</g>
<g>
</g>
<g>
</g>
<g>
</g>
<g>
</g>
</svg>
