<?xml version="1.0" encoding="iso-8859-1"?>
<!-- Generator: Adobe Illustrator 19.0.0, SVG Export Plug-In . SVG Version: 6.00 Build 0)  -->
<svg version="1.1" id="Capa_1" xmlns="http://www.w3.org/2000/svg" xmlns:xlink="http://www.w3.org/1999/xlink" x="0px" y="0px"
	 viewBox="0 0 472.662 472.662" style="enable-background:new 0 0 472.662 472.662;" xml:space="preserve">
<g>
	<g>
		<path d="M0,0.023v98.462h472.615V0.023H0z M452.923,78.792H19.692V19.715h433.231V78.792z"/>
	</g>
</g>
<g>
	<g>
		<rect x="59.077" y="39.408" width="216.615" height="19.692"/>
	</g>
</g>
<g>
	<g>
		<rect x="315.077" y="39.408" width="29.538" height="19.692"/>
	</g>
</g>
<g>
	<g>
		<rect x="384" y="39.408" width="29.538" height="19.692"/>
	</g>
</g>
<g>
	<g>
		<polygon points="0,118.177 0,216.639 252.062,216.639 252.062,196.946 19.692,196.946 19.692,137.869 452.923,137.869 
			452.923,196.946 398.769,196.946 398.769,216.639 472.615,216.639 472.615,118.177 		"/>
	</g>
</g>
<g>
	<g>
		<rect x="59.077" y="157.562" width="216.615" height="19.692"/>
	</g>
</g>
<g>
	<g>
		<rect x="384" y="157.562" width="29.538" height="19.692"/>
	</g>
</g>
<g>
	<g>
		<polygon points="213.662,256.023 213.662,236.331 0,236.331 0,334.792 187.077,334.792 187.077,315.1 19.692,315.1 
			19.692,256.023 		"/>
	</g>
</g>
<g>
	<g>
		<rect x="59.077" y="275.715" width="134.892" height="19.692"/>
	</g>
</g>
<g>
	<g>
		<polygon points="19.692,433.254 19.692,374.177 192,374.177 192,354.485 0,354.485 0,452.946 252.062,452.946 252.062,433.254 		
			"/>
	</g>
</g>
<g>
	<g>
		<rect x="59.077" y="393.869" width="151.631" height="19.692"/>
	</g>
</g>
<g>
	<g>
		<path d="M431.262,220.577c-26.585-27.569-64-43.323-103.385-43.323c-80.738,0-148.677,65.969-149.661,147.692
			c-0.985,39.385,13.785,76.8,41.354,104.369c26.585,27.569,64,43.323,103.385,43.323c80.738,0,148.677-65.969,149.662-147.692
			C473.6,285.562,458.831,248.146,431.262,220.577z M321.969,452.946c-34.462,0-65.969-12.8-89.6-37.415
			c-23.631-24.615-36.431-56.123-35.446-90.585c0.985-70.892,59.077-128,129.969-128c34.462,0,65.969,12.8,89.6,37.415
			c23.631,24.615,36.431,56.123,35.446,90.585C450.954,395.839,392.862,452.946,321.969,452.946z"/>
	</g>
</g>
<g>
	<g>
		<path d="M324.923,177.254c-38.4,0-59.077,75.815-59.077,147.692c0,71.877,20.677,147.692,59.077,147.692
			c38.4,0,59.077-75.815,59.077-147.692C384,253.069,363.323,177.254,324.923,177.254z M324.923,452.946
			c-15.754,0-39.385-50.215-39.385-128s23.631-128,39.385-128s39.385,50.215,39.385,128S340.677,452.946,324.923,452.946z"/>
	</g>
</g>
<g>
	<g>
		<path d="M324.923,236.331c-82.708,0-147.692,39.385-147.692,88.615s64.985,88.615,147.692,88.615s147.692-39.385,147.692-88.615
			S407.631,236.331,324.923,236.331z M324.923,393.869c-68.923,0-128-31.508-128-68.923c0-37.415,59.077-68.923,128-68.923
			s128,31.508,128,68.923C452.923,362.361,393.846,393.869,324.923,393.869z"/>
	</g>
</g>
<g>
	<g>
		<rect x="187.077" y="315.1" width="275.692" height="19.692"/>
	</g>
</g>
<g>
</g>
<g>
</g>
<g>
</g>
<g>
</g>
<g>
</g>
<g>
</g>
<g>
</g>
<g>
</g>
<g>
</g>
<g>
</g>
<g>
</g>
<g>
</g>
<g>
</g>
<g>
</g>
<g>
</g>
</svg>
