<?xml version="1.0" encoding="iso-8859-1"?>
<!-- Generator: Adobe Illustrator 19.0.0, SVG Export Plug-In . SVG Version: 6.00 Build 0)  -->
<svg version="1.1" id="Layer_1" xmlns="http://www.w3.org/2000/svg" xmlns:xlink="http://www.w3.org/1999/xlink" x="0px" y="0px"
	 viewBox="0 0 512 512" style="enable-background:new 0 0 512 512;" xml:space="preserve">
<g>
	<g>
		<path d="M511.694,84.146c-0.776-2.638-2.933-4.64-5.62-5.22L459.49,68.868l-15.655-15.655L433.776,6.628
			c-0.58-2.688-2.583-4.844-5.221-5.62c-2.636-0.777-5.489-0.05-7.434,1.894l-43.106,43.107
			c-38.578-22.974-82.636-35.096-127.821-35.096c-66.829,0-129.658,26.025-176.913,73.28C26.024,131.448,0,194.277,0,261.106
			s26.024,129.658,73.28,176.912c47.255,47.255,110.084,73.28,176.913,73.28s129.657-26.025,176.913-73.28
			c47.256-47.255,73.28-110.084,73.28-176.912c0-44.451-11.763-87.899-34.058-126.055l43.471-43.472
			C511.745,89.635,512.471,86.784,511.694,84.146z M436.88,67.507l8.314,8.314l-70.595,70.596l-32.076,32.076
			c-0.001,0-0.001,0.001-0.001,0.001l-78.811,78.811c-0.229,0.229-0.477,0.43-0.737,0.602c-0.042,0.028-0.09,0.045-0.133,0.071
			c-0.224,0.138-0.453,0.266-0.693,0.364c-0.021,0.009-0.044,0.012-0.066,0.02c-0.061,0.024-0.125,0.034-0.187,0.055
			c-0.497,0.169-1.013,0.272-1.532,0.272c-0.578,0-1.154-0.112-1.7-0.322c-0.028-0.011-0.058-0.015-0.085-0.026
			c-0.236-0.096-0.462-0.223-0.684-0.36c-0.046-0.028-0.097-0.046-0.142-0.076c-0.26-0.172-0.508-0.373-0.738-0.602l-1.617-1.617
			c-0.924-0.924-1.385-2.136-1.385-3.348c0-1.212,0.462-2.425,1.385-3.348l110.888-110.887L436.88,67.507z M242.22,263.172
			c0.01,0.015,0.017,0.03,0.027,0.045c0.31,0.469,0.65,0.92,1.003,1.365c0.063,0.079,0.115,0.163,0.179,0.241
			c0.421,0.514,0.867,1.011,1.343,1.487l1.617,1.617l0.001,0.001c0.008,0.008,0.018,0.015,0.026,0.024
			c0.468,0.466,0.955,0.905,1.458,1.318c0.092,0.075,0.19,0.137,0.284,0.21c0.431,0.34,0.867,0.67,1.322,0.971
			c0.03,0.02,0.062,0.036,0.092,0.055c3.182,2.083,6.898,3.208,10.789,3.208c3.901,0,7.625-1.129,10.811-3.221
			c0.023-0.015,0.047-0.027,0.07-0.042c0.456-0.301,0.894-0.633,1.326-0.974c0.092-0.072,0.189-0.134,0.28-0.208
			c0.467-0.382,0.914-0.792,1.35-1.22c0.044-0.043,0.092-0.078,0.135-0.122l27.147-27.147c2.553,6.433,3.877,13.323,3.877,20.325
			c0,30.419-24.747,55.166-55.166,55.166s-55.167-24.748-55.167-55.166c0-30.419,24.748-55.167,55.167-55.167
			c7.751,0,15.324,1.609,22.305,4.702l-27.726,27.726c-0.476,0.476-0.922,0.973-1.343,1.487c-0.064,0.078-0.117,0.162-0.179,0.241
			c-0.353,0.444-0.692,0.895-1.003,1.365c-0.01,0.015-0.017,0.03-0.027,0.045c-2.101,3.191-3.235,6.924-3.235,10.833
			S240.119,259.981,242.22,263.172z M421.999,23.272l6.725,31.144l-63.317,63.316l-6.724-31.144
			C358.685,86.587,421.997,23.274,421.999,23.272z M485.362,261.106c0,62.816-24.462,121.872-68.879,166.289
			c-44.418,44.417-103.474,68.88-166.29,68.88s-121.873-24.461-166.289-68.88c-44.417-44.417-68.88-103.473-68.88-166.289
			s24.462-121.872,68.88-166.289s103.474-68.88,166.289-68.88c41.194,0,81.388,10.707,116.846,31.048l-21.874,21.873
			c-1.805,1.805-2.569,4.402-2.03,6.897l2.169,10.043c-28.838-16.66-61.371-25.388-95.11-25.388
			c-48.711,0-95.079,18.361-130.559,51.701c-3.024,2.842-3.171,7.595-0.331,10.619c2.843,3.024,7.597,3.17,10.619,0.331
			c32.684-30.712,75.396-47.626,120.27-47.626c35.835,0,70.19,10.685,99.55,30.933l3.024,14.006l-24.354,24.353
			c-22.567-16.594-50.081-25.669-78.22-25.669c-72.812,0-132.049,59.237-132.049,132.048c0,36.685,15.453,72.022,42.394,96.949
			c3.047,2.818,7.8,2.632,10.616-0.413c2.818-3.045,2.633-7.799-0.412-10.616c-23.879-22.092-37.574-53.409-37.574-85.92
			c0-64.528,52.497-117.024,117.025-117.024c24.171,0,47.823,7.551,67.462,21.402l-33.955,33.955
			c-10.253-5.585-21.716-8.523-33.508-8.523c-38.704,0-70.191,31.488-70.191,70.191s31.487,70.19,70.191,70.19
			c38.703,0,70.19-31.488,70.19-70.19c0-11.052-2.604-21.883-7.558-31.667l34.149-34.149c13.272,19.413,20.244,41.996,20.244,65.815
			c0,64.527-52.496,117.024-117.024,117.024c-21.536,0-42.581-5.896-60.863-17.05c-3.541-2.161-8.164-1.042-10.326,2.5
			c-2.16,3.542-1.042,8.164,2.5,10.326c20.637,12.593,44.389,19.25,68.687,19.25c72.811,0,132.048-59.237,132.048-132.048
			c0-27.836-8.448-54.175-24.484-76.599l24.571-24.573l13.496,2.914c19.664,29.074,30.039,62.98,30.039,98.257
			c0,96.866-78.806,175.67-175.671,175.67S74.522,357.972,74.522,261.106c0-40.166,13.903-79.431,39.149-110.563
			c2.613-3.222,2.119-7.953-1.104-10.566c-3.223-2.614-7.953-2.118-10.566,1.104c-27.409,33.799-42.504,76.426-42.504,120.026
			c0,105.149,85.546,190.695,190.696,190.695s190.696-85.546,190.696-190.696c0-33.217-8.48-65.321-24.664-93.853l10.721,2.315
			c0.29,0.063,0.581,0.104,0.872,0.131c0.099,0.01,0.198,0.01,0.298,0.016c0.138,0.008,0.277,0.022,0.416,0.022
			c0.055,0,0.109-0.007,0.164-0.008c0.103-0.002,0.205-0.009,0.309-0.015c0.186-0.012,0.371-0.031,0.554-0.056
			c0.102-0.014,0.203-0.027,0.304-0.045c0.212-0.038,0.422-0.088,0.63-0.144c0.064-0.017,0.128-0.029,0.192-0.048
			c0.262-0.079,0.521-0.174,0.774-0.281c0.084-0.035,0.164-0.077,0.247-0.116c0.176-0.082,0.349-0.169,0.519-0.264
			c0.09-0.051,0.177-0.104,0.265-0.158c0.165-0.103,0.327-0.213,0.484-0.33c0.074-0.055,0.15-0.106,0.222-0.164
			c0.224-0.178,0.442-0.366,0.647-0.571l21.484-21.484C475.006,181.074,485.362,220.646,485.362,261.106z M426.115,154.018
			l-31.144-6.724l63.316-63.315l31.144,6.724L426.115,154.018z"/>
	</g>
</g>
<g>
</g>
<g>
</g>
<g>
</g>
<g>
</g>
<g>
</g>
<g>
</g>
<g>
</g>
<g>
</g>
<g>
</g>
<g>
</g>
<g>
</g>
<g>
</g>
<g>
</g>
<g>
</g>
<g>
</g>
</svg>
