<?xml version="1.0" encoding="iso-8859-1"?>
<!-- Generator: Adobe Illustrator 19.0.0, SVG Export Plug-In . SVG Version: 6.00 Build 0)  -->
<svg version="1.1" id="Capa_1" xmlns="http://www.w3.org/2000/svg" xmlns:xlink="http://www.w3.org/1999/xlink" x="0px" y="0px"
	 viewBox="0 0 512.014 512.014" style="enable-background:new 0 0 512.014 512.014;" xml:space="preserve">
<g>
	<g>
		<path d="M423.2,185.959c-4.064-7.904-13.824-10.912-21.568-6.88c-7.84,4.064-10.944,13.728-6.88,21.568
			c13.92,26.848,21.248,57.088,21.248,87.36c0,105.888-86.112,192-192,192s-192-86.112-192-192s86.112-192,192-192
			c30.272,0,60.512,7.328,87.36,21.248c7.776,4.064,17.504,0.992,21.568-6.88c4.064-7.84,0.96-17.504-6.88-21.568
			c-31.392-16.192-66.688-24.8-102.048-24.8c-123.488,0-224,100.512-224,224s100.512,224,224,224s224-100.512,224-224
			C448,252.647,439.392,217.351,423.2,185.959z"/>
	</g>
</g>
<g>
	<g>
		<path d="M510.784,57.895c-2.496-5.984-8.32-9.888-14.784-9.888h-32v-32c0-6.464-3.904-12.32-9.888-14.784
			c-5.952-2.464-12.832-1.12-17.44,3.456l-48,48C385.696,55.687,384,59.751,384,64.007v41.376L256.288,233.095
			c-9.504-5.632-20.448-9.088-32.288-9.088c-35.296,0-64,28.704-64,64s28.704,64,64,64s64-28.704,64-64
			c0-11.84-3.456-22.784-9.088-32.288l127.712-127.712H448c4.256,0,8.32-1.696,11.328-4.672l48-48
			C511.904,70.759,513.28,63.879,510.784,57.895z M224,320.007c-17.664,0-32-14.336-32-32s14.336-32,32-32
			c2.752,0,5.248,0.928,7.808,1.568l-19.136,19.104c-6.24,6.24-6.24,16.384,0,22.624c3.136,3.136,7.232,4.704,11.328,4.704
			s8.192-1.568,11.328-4.672l19.104-19.104c0.64,2.528,1.568,5.024,1.568,7.776C256,305.671,241.664,320.007,224,320.007z
			 M441.376,96.007H416V70.631l16-16v9.376c0,8.832,7.168,16,16,16h9.376L441.376,96.007z"/>
	</g>
</g>
<g>
	<g>
		<path d="M362.976,250.535c-2.304-8.544-10.944-13.568-19.616-11.264c-8.544,2.304-13.568,11.136-11.264,19.616
			c2.592,9.568,3.904,19.328,3.904,29.12c0,61.76-50.24,112-112,112s-112-50.24-112-112s50.24-112,112-112
			c9.792,0,19.552,1.312,29.088,3.904c8.64,2.336,17.312-2.72,19.616-11.264c2.304-8.512-2.72-17.312-11.264-19.616
			c-12.224-3.328-24.832-5.024-37.44-5.024c-79.392,0-144,64.608-144,144s64.608,144,144,144s144-64.608,144-144
			C368,275.399,366.304,262.791,362.976,250.535z"/>
	</g>
</g>
<g>
</g>
<g>
</g>
<g>
</g>
<g>
</g>
<g>
</g>
<g>
</g>
<g>
</g>
<g>
</g>
<g>
</g>
<g>
</g>
<g>
</g>
<g>
</g>
<g>
</g>
<g>
</g>
<g>
</g>
</svg>
